<svg width="672" height="57" fill="none" xmlns="http://www.w3.org/2000/svg"><path d="M26.072 21.4c-.95 3.3-2.1 6.55-3.3 9.75-.65 1.65-1.35 3.35-2 5-.25.65-.65 1.1-1.4 1.35-2.75 1.1-6.25 2.6-8.75 4-2.05 1.15-3.75 2.55-4.8 4.5-.75 1.3-.95 2.7-.85 4.1.15 2.1 1.6 3.4 3.65 3.4 6.2 0 11-8.6 13.45-13.7.25-.5.6-.85 1.15-1.05l3.3-1.5c1.55-.75 3.15-1.45 4.7-2.35 1.2-.7 2-1.15 1.45-2.65-.25-.6-.45-1.05-.8-1.05-.15 0-.35.1-.65.35-1.3 1.15-3.15 2.05-4.75 2.75-.7.35-1.5.9-2.3 1.1.3-.4.35-1.05.55-1.5 2.2-5.55 4.05-11.2 5.5-16.95.2-.75.35-1.5.75-2.2.35-.6.3-1.2.2-1.8-.25-.25-.55-.45-.9-.45s-.65-.05-.95-.2c-.15-.1-.3-.1-.45-.1-.3 0-.55.15-.8.35-.3.25-.55.6-.8.9-2.6 3.5-5.3 7-7.9 10.5-3.35 4.4-7.15 9.4-11.45 12.95-.25.25-.5.35-.85.35-.25-.15-.25-.4-.2-.6.25-1 .45-2 .75-2.95.85-2.4 1.95-4.7 3.15-6.95 1.6-3.15 3.3-6.25 4.95-9.4.95-1.75 1.85-3.5 2.4-5.4.15-.7.25-1.35.2-2.05-.15-1.6-1.4-2.5-2.95-2.5-3.95 0-9 3.45-10.25 7.25-.25.95.4 1.7 1.5 1.75.45 0 .95-.05 1.25-.45.25-.7.4-1.45.9-2.1 1.05-1.3 2.25-2.4 3.85-3.1.65-.35 1.35-.55 2.1-.7h.15c.45 0 .65.25.6.65-.15 1-.5 1.9-.95 2.8-.85 1.8-1.75 3.55-2.7 5.3-1.7 3.15-3.4 6.3-4.95 9.55-.85 1.8-1.65 3.6-2.25 5.5-.4 1.4-.7 2.9-.6 4.4.05 1.7 1.25 2.05 2.7 2.05 3.7 0 11.85-10.6 13.9-13.35 1.65-2.15 3.25-4.3 4.85-6.4.25-.3.35-.7 1.05-.9-.2.7-.3 1.25-.45 1.75zm-7.65 19.55c-1.25 1.9-2.2 3.9-3.55 5.7-1.3 1.65-3.65 3.75-5.8 4.2-.6 0-.95 0-1.15-.65-.2-.95-.05-1.85.35-2.75.95-2 3.1-3.5 5.1-4.35 1.3-.6 2.6-1.15 3.9-1.75.2-.1.45-.2.7-.25l.45-.15zM43.19 33.7c.9-.3 2.45-.65 2.7-1.6.15-.45.1-1.1.05-1.6-.1-.5-.15-.65-.3-.65-.1 0-.3.05-.55.2-.4.15-3.05 1.6-4 1.6-.15 0-.25-.05-.3-.15-.2-.5-.05-.95-.05-1.35.05-.6 0-1.2-.15-1.75-.15-.7-.4-1.3-.45-2 0-.85-1.55-1.7-2.3-1.7-3.4 0-6.8 6.8-7.65 9.45-.5 1.55-.7 3.15-.4 4.75.35 1.7 1.3 2.6 2.85 2.6.15 0 .35-.05.5-.05 3-.2 5.7-4.35 6.7-6.85.15-.3 2.95-.8 3.35-.9zm-9-1.9c.45.5.7 1.15 1.2 1.55.5.35 1 .65 1.5 1 .1.35-.15.6-.3.8-.6 1-2.15 3.5-3.5 3.5-.15 0-.3-.05-.5-.1-.6-1.95.15-4.9 1.6-6.75zm2.55-1.55c0-.7.25-1.25.95-1.6.5.9.4 1.75.05 2.8-.65-.2-.95-.65-1-1.2zm17.984 5.4c.7-2.55 2.5-5.55 4.05-7.7.35-.55.6-1.05.2-1.65-.55-.3-1.1-.55-1.65-.85-.5.25-.7.65-.95 1.05-.75 1.05-1.55 2-2.4 2.95-.85.85-1.6 1.75-2.35 2.7-1.25 1.5-2.5 2.95-3.9 4.35-.5.5-1.05 1-1.65 1.35-.15.1-.3.2-.5.2-.1 0-.2-.05-.3-.15-.25-.65 0-1.25.25-1.85 1-2.55 2.15-5.05 3.7-7.35.3-.5.65-.95 1.15-1.3.5-.35.8-.9.5-1.55-.05-.2-.05-.4-.05-.65-.45-.2-.9-.45-1.35-.65-2.7 1.2-5.65 8.4-6.7 10.95-.35.85-.45 1.8-.4 2.75.1 1.65 1.3 2.75 2.8 2.75 1.3 0 2.6-.75 3.5-1.6.8-.75 1.55-1.55 2.35-2.3.15-.15.25-.35.45-.35.05 0 .1 0 .2.05.05.1.1.25.1.45.3 2 1.7 2.9 3.6 2.9.8 0 1.6-.25 2.35-.65 3.9-2 6.95-4.95 9.3-8.65.05-.1.1-.2.1-.35-.15-.25-.25-.5-.4-.8h-.2c-.5 0-.8-.45-1.15-.65-.6.1-.75.55-.95.9-1.45 2.05-6.3 7.4-9 7.4-.25 0-.5-.05-.75-.15-.2-.55-.05-1.05.05-1.55zm7.239 3.75c.3.2.8.15 1.05.5.3-.05.55-.05.9-.1 1.6-3.45 3.3-6.8 5.2-10 .5.05.8.25 1.1.45.8.5 1.6.65 2.4.65 1.85 0 4.05-.9 5.65-1.7 1.3-.7 1.5-1.3.45-2.55-.15-.2-.3-.35-.5-.45-.05-.05-.15-.05-.25-.05-.7 0-1.75.9-2.3 1.1-.55.2-2.75.95-3.3.95-.7 0-1.25-.4-1.6-1.1-.2-.4-.45-.8-.8-1.15-.15-.15-.35-.3-.3-.4.1-.65-.5-1.1-.65-1.6-.6-.25-1-.4-1.3-.4-.4 0-.65.2-1.05.75-.25.3-.5.65-.65 1-.3.6-.6 1.25-.8 1.9-1.25 3.35-2.4 6.7-3.55 10.05-.15.35-.2.65-.3.95-.1.55.05.85.6 1.2zm21.103 0c.3.2.8.15 1.05.5.3-.05.55-.05.9-.1 1.6-3.45 3.3-6.8 5.2-10 .5.05.8.25 1.1.45.8.5 1.6.65 2.4.65 1.85 0 4.05-.9 5.65-1.7 1.3-.7 1.5-1.3.45-2.55-.15-.2-.3-.35-.5-.45-.05-.05-.15-.05-.25-.05-.7 0-1.75.9-2.3 1.1-.55.2-2.75.95-3.3.95-.7 0-1.25-.4-1.6-1.1-.2-.4-.45-.8-.8-1.15-.15-.15-.35-.3-.3-.4.1-.65-.5-1.1-.65-1.6-.6-.25-1-.4-1.3-.4-.4 0-.65.2-1.05.75-.25.3-.5.65-.65 1-.3.6-.6 1.25-.8 1.9-1.25 3.35-2.4 6.7-3.55 10.05-.15.35-.2.65-.3.95-.1.55.05.85.6 1.2zm25.088-5.7c.9-.3 2.45-.65 2.7-1.6.15-.45.1-1.1.05-1.6-.1-.5-.15-.65-.3-.65-.1 0-.3.05-.55.2-.4.15-3.05 1.6-4 1.6-.15 0-.25-.05-.3-.15-.2-.5-.05-.95-.05-1.35.05-.6 0-1.2-.15-1.75-.15-.7-.4-1.3-.45-2 0-.85-1.55-1.7-2.3-1.7-3.4 0-6.8 6.8-7.65 9.45-.5 1.55-.7 3.15-.4 4.75.35 1.7 1.3 2.6 2.85 2.6.15 0 .35-.05.5-.05 3-.2 5.7-4.35 6.7-6.85.15-.3 2.95-.8 3.35-.9zm-9-1.9c.45.5.7 1.15 1.2 1.55.5.35 1 .65 1.5 1 .1.35-.15.6-.3.8-.6 1-2.15 3.5-3.5 3.5-.15 0-.3-.05-.5-.1-.6-1.95.15-4.9 1.6-6.75zm2.55-1.55c0-.7.25-1.25.95-1.6.5.9.4 1.75.05 2.8-.65-.2-.95-.65-1-1.2zm22.285-.25c-.15-.3-.45-.55-.85-.75-.15-.1-.3-.1-.45-.1-.65 0-.95.7-1.3 1.25-1.4 2.1-2.75 4.2-4.15 6.25-1.15 1.75-2.85 4-5 4.45-.4-.25-.45-.5-.5-.75-.25-.8-.35-1.65-.25-2.5.15-1.25.35-2.55.55-3.8.1-.55.45-.95.85-1.35 5.15-4.45 12.5-13.05 14.3-19.9.2-.85.25-1.75-.05-2.6-.35-1-1-1.5-1.8-1.5-.3 0-.6.1-.95.2-1.25.5-3.55 3-4.4 4-3.65 4.4-7.95 11.45-9.7 17.05-.25.85-.45 1.7-1.3 2.2-.1.05-.1.15-.15.3.5.9.35 1.9.15 2.9-.05.35-.1.75-.15 1.1-.15 1.6-.2 3.2.2 4.85.4 1.65 1.6 2.6 3.1 2.6 2.45 0 5.2-2.5 6.45-4.45.95-1.35 1.9-2.7 2.8-4.05.8-1.2 3.45-3.85 2.6-5.4zm-9.4-3.45c2.1-4.2 4.5-8.2 7.5-11.85.15-.25 1.65-1.85 1.85-1.85.05 0 .15 0 .2.05-.2 3.4-6.9 11.35-9.55 14.35-.2-.4-.1-.55 0-.7zm11.168 8c3.4-1.25 6.15-3.6 7.25-7.15.3-1.05.25-2.1-.15-3.1-.4-1.1-1.15-1.7-2.4-1.75-1.35 0-2.6.45-3.6 1.3-4.05 3.45-6.1 7.75-5.55 13.15.2 1.9 2.3 4.2 4.25 4.35 3.05 0 5.2-1 7.3-3.3.9-1 1.85-2 2.75-3 .45-.5.95-.95 1.25-1.55-.1-1.05-1.2-1.1-1.55-1.8-.55.05-.75.4-1 .7-1.1 1.2-2.25 2.45-3.35 3.65-1.25 1.45-2.95 2.5-4.95 2.5-.4 0-.8-.25-1.1-.5-.85-.75-1-1.65-.85-2.7.6-.45 1.15-.6 1.7-.8zm4.55-8.1c-.2.8-.5 1.6-1.05 2.25-1.15 1.55-2.7 2.6-4.55 3.25 0-2.2 3.15-6 5.35-6.55.35.35.35.7.25 1.05z" fill="#231F20"/><path d="M238.48 25.05c-.4.7-.9 1.35-1.4 2l-2.1 2.55c-3.05 3.65-8.15 9.25-13.3 9.25-3.75 0-5.2-3.75-5.3-6.95-.1-3.1.45-6.1 1.7-8.95 2.35-5.5 6.25-11.2 11.7-14 .7-.4 1.45-.65 2.3-.75.15 0 .3-.05.4-.05 1.2 0 1.85.85 1.65 2.15-.25 1.6-1 2.9-2.15 3.95-.65.65-.9.65-1.7.65-.3 0-.6 0-.9.1-.8.35-1.05 1.15-.6 1.9.25.45.65.7 1.15.75.2.05.4.05.6.05 3.15 0 5.55-3.95 6.15-6.65.15-.65.15-1.3.05-1.95-.2-1.45-.9-2.5-2.25-3.15-.65-.25-1.3-.4-1.95-.4-3.9 0-8.2 3.75-10.65 6.5-3.15 3.55-5.45 7.65-7 12.15-.95 2.85-1.4 5.8-1 8.8.7 4.6 2.95 8.4 8 8.4 7.3 0 14.1-8.65 18.2-14 .25-.4.5-.8.7-1.2.2-.45.05-.95-.4-1.05-.5-.15-.85-.55-1.35-.7-.3.1-.45.35-.55.6zm10.95 4.65c.9-.3 2.45-.65 2.7-1.6.15-.45.1-1.1.05-1.6-.1-.5-.15-.65-.3-.65-.1 0-.3.05-.55.2-.4.15-3.05 1.6-4 1.6-.15 0-.25-.05-.3-.15-.2-.5-.05-.95-.05-1.35.05-.6 0-1.2-.15-1.75-.15-.7-.4-1.3-.45-2 0-.85-1.55-1.7-2.3-1.7-3.4 0-6.8 6.8-7.65 9.45-.5 1.55-.7 3.15-.4 4.75.35 1.7 1.3 2.6 2.85 2.6.15 0 .35-.05.5-.05 3-.2 5.7-4.35 6.7-6.85.15-.3 2.95-.8 3.35-.9zm-9-1.9c.45.5.7 1.15 1.2 1.55.5.35 1 .65 1.5 1 .1.35-.15.6-.3.8-.6 1-2.15 3.5-3.5 3.5-.15 0-.3-.05-.5-.1-.6-1.95.15-4.9 1.6-6.75zm2.55-1.55c0-.7.25-1.25.95-1.6.5.9.4 1.75.05 2.8-.65-.2-.95-.65-1-1.2zm9.034-.65c-1.2 1.2-2.15 2.55-2.8 4.05-1.05 2.45-.8 4.85.55 7.1.95 1.65 2.55 2.55 4.45 2.55 4.15 0 6.4-3.4 6.65-7.2.15-2.75-.25-5.45-1.4-8-.2-.4-.4-.8-.55-1.2-.3-1.05.2-1.65 1.2-1.65h.2c.4.05.8.2 1.1.5.2.15.35.35.6.5.2.15.4.2.6.2.35 0 .7-.2.95-.5.2-.3.45-.6.65-.95.05-.9-.55-1.45-1.25-1.85a5.242 5.242 0 00-3.95-.6c-1.7.35-3.3 1.7-3.05 3.9.05.7.25 1.35.55 2 .8 1.6 1.35 3.25 1.55 5 .2 1.65.15 3.25-.45 4.85-.5 1.25-1.85 2.3-3.25 2.3-.95 0-1.9-.5-2.4-1.55s-.7-2.2-.45-3.35c.55-2.05 1.7-3.65 3.55-4.85.05-.3.05-.65.1-1-.8-.1-.55-.9-.95-1.3-1 .1-1.5.35-2.2 1.05zm9.335-9.65c-.1.6-.2 1.25.05 1.85.05.05.05.1.1.15.05 0 .1.05.15.05.55.15.95.15 1.4.15h.75l1.8-.15c.15 0 1.4-.1 2.25-.1.45 0 .75.05.75.1-.05.45-.25.8-.45 1.15-1.25 2.5-2.6 5.65-3.7 8.25-.95 2.05-1.6 4.2-2.05 6.4-.25 1.3-.3 2.6-.05 3.95.3 1.55 1.3 2.45 2.7 2.45 1.3 0 2.55-.65 3.5-1.5.7-.7 1.3-1.45 1.9-2.25 1.9-2.7 3.8-5.4 5.6-8.2.35-.55.75-1.1.95-1.8-.15-.3-.3-.6-.45-.95-.1.05-.2.1-.3.1-.35 0-.4-.6-.95-.55-.45.2-.6.7-.85 1.1-2 3.2-4.45 6.3-6.7 9.3-.45.55-.9 1.05-1.45 1.45-.2.2-.45.4-.75.4-.15 0-.3-.05-.45-.1-.15-.55-.2-1.15-.15-1.75.2-2 .75-3.9 1.45-5.75 1.75-4.45 3.6-8.1 5.2-11.2.1-.15.2-.25.3-.35 2.85-.45 5.75-.4 8.55-.9.15-.35.25-.6.35-.9-.5-.4-.15-1-.4-1.6-.25-.1-.5-.1-.8-.1-.75 0-1.55.25-2.35.25h-.35c-.8 0-1.6.2-2.4.2-.3 0-.65 0-.95-.1.2-.7 1.7-3.75 2.35-4.2.8-.6.8-1.35.45-2.15-.5-.25-1-.45-1.5-.7-.25.2-.45.35-.65.5-.95.85-2.85 4.4-3.45 5.6-.3.6-.7.9-1.35.95-.55.05-1.1.05-1.6.05-1.1 0-2.15-.05-3.25-.05-.6 0-1.15 0-1.75.05-.4.05-.75.15-1.1.15h-.2c-.05.25-.1.45-.15.75zm34.388 13.75c.9-.3 2.45-.65 2.7-1.6.15-.45.1-1.1.05-1.6-.1-.5-.15-.65-.3-.65-.1 0-.3.05-.55.2-.4.15-3.05 1.6-4 1.6-.15 0-.25-.05-.3-.15-.2-.5-.05-.95-.05-1.35.05-.6 0-1.2-.15-1.75-.15-.7-.4-1.3-.45-2 0-.85-1.55-1.7-2.3-1.7-3.4 0-6.8 6.8-7.65 9.45-.5 1.55-.7 3.15-.4 4.75.35 1.7 1.3 2.6 2.85 2.6.15 0 .35-.05.5-.05 3-.2 5.7-4.35 6.7-6.85.15-.3 2.95-.8 3.35-.9zm-9-1.9c.45.5.7 1.15 1.2 1.55.5.35 1 .65 1.5 1 .1.35-.15.6-.3.8-.6 1-2.15 3.5-3.5 3.5-.15 0-.3-.05-.5-.1-.6-1.95.15-4.9 1.6-6.75zm2.55-1.55c0-.7.25-1.25.95-1.6.5.9.4 1.75.05 2.8-.65-.2-.95-.65-1-1.2zm10.185 4.95c5.6-3.55 14.55-13.25 16.7-20 .4-1.15.6-2.3.3-3.5-.35-1.25-1.1-1.7-2.35-1.7-3.95.6-9.6 8.65-11.55 11.75-2.1 3.4-4 6.9-5.65 10.5-.45 1-.8 2-1.8 2.55-.05.05-.05.15-.1.25.25.95.25.95-.1 1.8-.1.3-.2.65-.35.95-1.25 3.25-2.3 6.5-2.7 9.95-.1 1.05-.2 2.1.15 3.1.4 1.25 1.4 1.95 2.5 1.95 2.3 0 3.95-2.95 4.4-4.95.65-2.65.95-5.35.5-8.1-.05-.3-.15-.65 0-.95.1-.05.15-.1.25-.15 3.9-.3 12-2.95 14.35-6.6-.2-1-1.15-1.15-1.5-1.85-.5.05-.75.4-1 .65-2.3 2.55-7.05 4-10.25 4.8-.4.1-.8.2-1.2.2-.3 0-.6-.05-.85-.2-.05-.25.1-.35.25-.45zm13.85-20.25c-1.75 4.9-8 11.8-11.75 15.15l-.45.3c.05-.95 1.75-4.1 4.25-7.95 2.85-4.4 6.25-8.2 8.25-9.15.15.65-.15 1.15-.3 1.65zm-16.7 25.85c.25.4.2.85.2 1.25 0 2.15-.25 5.35-1.5 7.2-.15.15-.25.35-.6.35-.35-1.95.8-7.45 1.9-8.8zM335.947 26c-.15-.3-.45-.55-.85-.75-.15-.1-.3-.1-.45-.1-.65 0-.95.7-1.3 1.25-1.4 2.1-2.75 4.2-4.15 6.25-1.15 1.75-2.85 4-5 4.45-.4-.25-.45-.5-.5-.75-.25-.8-.35-1.65-.25-2.5.15-1.25.35-2.55.55-3.8.1-.55.45-.95.85-1.35 5.15-4.45 12.5-13.05 14.3-19.9.2-.85.25-1.75-.05-2.6-.35-1-1-1.5-1.8-1.5-.3 0-.6.1-.95.2-1.25.5-3.55 3-4.4 4-3.65 4.4-7.95 11.45-9.7 17.05-.25.85-.45 1.7-1.3 2.2-.1.05-.1.15-.15.3.5.9.35 1.9.15 2.9-.05.35-.1.75-.15 1.1-.15 1.6-.2 3.2.2 4.85.4 1.65 1.6 2.6 3.1 2.6 2.45 0 5.2-2.5 6.45-4.45.95-1.35 1.9-2.7 2.8-4.05.8-1.2 3.45-3.85 2.6-5.4zm-9.4-3.45c2.1-4.2 4.5-8.2 7.5-11.85.15-.25 1.65-1.85 1.85-1.85.05 0 .15 0 .2.05-.2 3.4-6.9 11.35-9.55 14.35-.2-.4-.1-.55 0-.7zm12.217-1.85c-.35-.25-.7-.55-1.15-.55-.15 0-.3.05-.45.1-.65.5-1 1.25-1.35 1.95-1.9 4.15-3.4 8.4-5 12.65-.15.5-.3 1.05-.3 1.5.2.5.55.7.8.95.3.25.55.4.8.4s.5-.1.8-.3c.6-.5 1.15-1 1.6-1.75-.35-.25-.15-.7-.45-1-.1.05-.15 0-.1-.1-.05-.3.1-.55.2-.85 1.15-3.1 2.25-6.2 3.6-9.2.2-.4.3-.85.65-1.1.4-.25.5-.65.7-1 .35-.65.25-1.25-.35-1.7zm3.4-7.6c-.2-.1-.35-.15-.5-.15-.4 0-.7.3-.9.75-.15.45-.3.85-.45 1.25.75.85 1.1 1.1 1.9 1.1.2 0 .45 0 .75-.05.4-.6.7-1.2.65-2.1-.5-.3-1-.6-1.45-.8zm11.749 6.5c-.2-.15-.3-.45-.55-.5-.3 0-.5.15-.65.35-.4.45-.8.9-1.15 1.35-2.8 3.65-5.65 7.35-8.5 10.95-.2.3-.35.7-.8.8-.1-.2-.1-.4-.05-.6.55-3.55 1.3-7.05 2.3-10.55.1-.25.1-.55.3-.7.55-.5.4-1.15.35-1.75-.35-.3-.75-.5-.95-.85-.4.05-.75.1-1.2.15-1.8 2-4 14.4-4 18.4.05.8.4 1.3 1.1 1.6.2.1.4.15.55.15.4 0 .75-.2 1.1-.45.65-.5 1.05-1.15 1.5-1.75 2.55-3.65 5.35-7.15 8.05-10.65 1.25-1.55 2.5-3.1 3.7-4.7-.1-.3-.2-.55-.3-.9-.3 0-.65-.05-.8-.4v.05zm4.197 1.1c-.35-.25-.7-.55-1.15-.55-.15 0-.3.05-.45.1-.65.5-1 1.25-1.35 1.95-1.9 4.15-3.4 8.4-5 12.65-.15.5-.3 1.05-.3 1.5.2.5.55.7.8.95.3.25.55.4.8.4s.5-.1.8-.3c.6-.5 1.15-1 1.6-1.75-.35-.25-.15-.7-.45-1-.1.05-.15 0-.1-.1-.05-.3.1-.55.2-.85 1.15-3.1 2.25-6.2 3.6-9.2.2-.4.3-.85.65-1.1.4-.25.5-.65.7-1 .35-.65.25-1.25-.35-1.7zm3.4-7.6c-.2-.1-.35-.15-.5-.15-.4 0-.7.3-.9.75-.15.45-.3.85-.45 1.25.75.85 1.1 1.1 1.9 1.1.2 0 .45 0 .75-.05.4-.6.7-1.2.65-2.1-.5-.3-1-.6-1.45-.8zm2.049 12.35c0-.05.05-.1.05-.2.1-.55.35-1.05.75-1.45.6-.6.85-1.4 1.25-2.15-.4-.9-1.3-1.05-2-1.45-.75.45-1.15 1.2-1.55 1.9-2.15 3.95-3.75 8.15-5.6 12.25-.3.75-.35 1.5.2 2.2.2.1.45.2.7.25.35.15.55.25.7.25.25 0 .45-.15.8-.55.4-.35.65-.8.95-1.2 2.25-3.8 6-8.8 9.9-11.1.15-.05.3-.15.45-.15.1 0 .15 0 .25.1 0 .5-.25.95-.45 1.4-.6 1.35-.85 1.85-1.45 3.15-.5 1.25-1.1 2.45-1.5 3.75-.3.95-.5 1.9-.4 2.9.1 1.4 1.05 2.25 2.3 2.25 3.35 0 9.5-7.95 11.15-10.75-.3-1-1.3-1-1.8-1.65-.65.25-.85.8-1.15 1.25-1.45 2.25-4.8 6.05-6.95 7.65-.1.1-.25.25-.45.25-.05 0-.15 0-.2-.05-.1-.15-.05-.35 0-.5.15-.5.25-1.05.5-1.55.65-1.6 1.35-3.1 2-4.7.5-1.15.75-1.45 1.1-2.7.25-.75.35-1.55.2-2.35-.15-1.05-.85-1.65-1.85-1.75-2.5 0-5.8 2.9-7.7 4.65-.1 0-.15.05-.2.05zm30.58 4.2c-.1-.15-.25-.2-.4-.2-.1 0-.2.05-.3.1-.2.15-.35.35-.5.55-1.05 1.3-2.2 2.45-3.45 3.55-.4.35-.8.6-1.15.9-.25-.25-.15-.45-.1-.65.8-2.85 1.3-5.8 2.35-8.55.25-.6.25-1.1-.15-1.55-.45-.55-.75-1.15-1.1-1.7-.75-1.3-2.05-2.05-3.5-2.05-.3 0-.55.05-.85.1-4.85 1.2-9.15 7.25-10.05 11.9-.15.8-.2 1.6 0 2.4.45 1.6 1.3 2.35 2.75 2.35.25 0 .5 0 .75-.05 2.6-.3 4.65-2.05 6.45-3.75.25-.25.4-.55.75-.55.15.2.1.35.05.5-.35 1.35-.8 2.7-1.15 4.05-.15.7-.55 1.1-1.1 1.45-1.15.7-2.35 1.2-3.6 1.65-4.4 1.7-10.15 4.7-10.15 10.15.05 2.6 1.7 4.25 4.35 4.25 6.4 0 10.35-8.5 12.05-13.65.3-.85.8-1.5 1.5-2 2.55-1.95 6.2-4.9 7.95-7.65-.15-.35-.3-.65-.45-.95-.05 0-.15.05-.2.05-.4 0-.55-.4-.8-.7l.05.05zm-16.5 2.85c.5-3.05 4.65-9.6 8.1-9.6.55 0 1.05.2 1.35.85.15.3.4.55.6.85-.05.15-.05.25-.1.35-1.6 2.35-3.15 4.65-5.2 6.6-.95.9-1.95 1.7-3.2 2.2-.35.1-.65.25-1 .25-.1 0-.2 0-.35-.05-.4-.45-.3-.95-.2-1.45zm1.15 16.6c-1.05 1.3-2.8 2.45-4.5 2.7h-.25c-1.1 0-1.7-.65-1.6-1.8.05-.8.3-1.5.75-2.15 1.75-3.15 6.2-4.65 9.4-5.65-.95 2.5-2.05 4.9-3.8 6.9zM506.55 18.4c-.95 3.3-2.1 6.55-3.3 9.75-.65 1.65-1.35 3.35-2 5-.25.65-.65 1.1-1.4 1.35-2.75 1.1-6.25 2.6-8.75 4-2.05 1.15-3.75 2.55-4.8 4.5-.75 1.3-.95 2.7-.85 4.1.15 2.1 1.6 3.4 3.65 3.4 6.2 0 11-8.6 13.45-13.7.25-.5.6-.85 1.15-1.05l3.3-1.5c1.55-.75 3.15-1.45 4.7-2.35 1.2-.7 2-1.15 1.45-2.65-.25-.6-.45-1.05-.8-1.05-.15 0-.35.1-.65.35-1.3 1.15-3.15 2.05-4.75 2.75-.7.35-1.5.9-2.3 1.1.3-.4.35-1.05.55-1.5 2.2-5.55 4.05-11.2 5.5-16.95.2-.75.35-1.5.75-2.2.35-.6.3-1.2.2-1.8-.25-.25-.55-.45-.9-.45s-.65-.05-.95-.2c-.15-.1-.3-.1-.45-.1-.3 0-.55.15-.8.35-.3.25-.55.6-.8.9-2.6 3.5-5.3 7-7.9 10.5-3.35 4.4-7.15 9.4-11.45 12.95-.25.25-.5.35-.85.35-.25-.15-.25-.4-.2-.6.25-1 .45-2 .75-2.95.85-2.4 1.95-4.7 3.15-6.95 1.6-3.15 3.3-6.25 4.95-9.4.95-1.75 1.85-3.5 2.4-5.4.15-.7.25-1.35.2-2.05-.15-1.6-1.4-2.5-2.95-2.5-3.95 0-9 3.45-10.25 7.25-.25.95.4 1.7 1.5 1.75.45 0 .95-.05 1.25-.45.25-.7.4-1.45.9-2.1 1.05-1.3 2.25-2.4 3.85-3.1.65-.35 1.35-.55 2.1-.7h.15c.45 0 .65.25.6.65-.15 1-.5 1.9-.95 2.8-.85 1.8-1.75 3.55-2.7 5.3-1.7 3.15-3.4 6.3-4.95 9.55-.85 1.8-1.65 3.6-2.25 5.5-.4 1.4-.7 2.9-.6 4.4.05 1.7 1.25 2.05 2.7 2.05 3.7 0 11.85-10.6 13.9-13.35 1.65-2.15 3.25-4.3 4.85-6.4.25-.3.35-.7 1.05-.9-.2.7-.3 1.25-.45 1.75zm-7.65 19.55c-1.25 1.9-2.2 3.9-3.55 5.7-1.3 1.65-3.65 3.75-5.8 4.2-.6 0-.95 0-1.15-.65-.2-.95-.05-1.85.35-2.75.95-2 3.1-3.5 5.1-4.35 1.3-.6 2.6-1.15 3.9-1.75.2-.1.45-.2.7-.25l.45-.15zm24.768-7.25c.9-.3 2.45-.65 2.7-1.6.15-.45.1-1.1.05-1.6-.1-.5-.15-.65-.3-.65-.1 0-.3.05-.55.2-.4.15-3.05 1.6-4 1.6-.15 0-.25-.05-.3-.15-.2-.5-.05-.95-.05-1.35.05-.6 0-1.2-.15-1.75-.15-.7-.4-1.3-.45-2 0-.85-1.55-1.7-2.3-1.7-3.4 0-6.8 6.8-7.65 9.45-.5 1.55-.7 3.15-.4 4.75.35 1.7 1.3 2.6 2.85 2.6.15 0 .35-.05.5-.05 3-.2 5.7-4.35 6.7-6.85.15-.3 2.95-.8 3.35-.9zm-9-1.9c.45.5.7 1.15 1.2 1.55.5.35 1 .65 1.5 1 .1.35-.15.6-.3.8-.6 1-2.15 3.5-3.5 3.5-.15 0-.3-.05-.5-.1-.6-1.95.15-4.9 1.6-6.75zm2.55-1.55c0-.7.25-1.25.95-1.6.5.9.4 1.75.05 2.8-.65-.2-.95-.65-1-1.2zm17.985 5.4c.7-2.55 2.5-5.55 4.05-7.7.35-.55.6-1.05.2-1.65-.55-.3-1.1-.55-1.65-.85-.5.25-.7.65-.95 1.05-.75 1.05-1.55 2-2.4 2.95-.85.85-1.6 1.75-2.35 2.7-1.25 1.5-2.5 2.95-3.9 4.35-.5.5-1.05 1-1.65 1.35-.15.1-.3.2-.5.2-.1 0-.2-.05-.3-.15-.25-.65 0-1.25.25-1.85 1-2.55 2.15-5.05 3.7-7.35.3-.5.65-.95 1.15-1.3.5-.35.8-.9.5-1.55-.05-.2-.05-.4-.05-.65-.45-.2-.9-.45-1.35-.65-2.7 1.2-5.65 8.4-6.7 10.95-.35.85-.45 1.8-.4 2.75.1 1.65 1.3 2.75 2.8 2.75 1.3 0 2.6-.75 3.5-1.6.8-.75 1.55-1.55 2.35-2.3.15-.15.25-.35.45-.35.05 0 .1 0 .2.05.05.1.1.25.1.45.3 2 1.7 2.9 3.6 2.9.8 0 1.6-.25 2.35-.65 3.9-2 6.95-4.95 9.3-8.65.05-.1.1-.2.1-.35-.15-.25-.25-.5-.4-.8h-.2c-.5 0-.8-.45-1.15-.65-.6.1-.75.55-.95.9-1.45 2.05-6.3 7.4-9 7.4-.25 0-.5-.05-.75-.15-.2-.55-.05-1.05.05-1.55zm7.238 3.75c.3.2.8.15 1.05.5.3-.05.55-.05.9-.1 1.6-3.45 3.3-6.8 5.2-10 .5.05.8.25 1.1.45.8.5 1.6.65 2.4.65 1.85 0 4.05-.9 5.65-1.7 1.3-.7 1.5-1.3.45-2.55-.15-.2-.3-.35-.5-.45-.05-.05-.15-.05-.25-.05-.7 0-1.75.9-2.3 1.1-.55.2-2.75.95-3.3.95-.7 0-1.25-.4-1.6-1.1-.2-.4-.45-.8-.8-1.15-.15-.15-.35-.3-.3-.4.1-.65-.5-1.1-.65-1.6-.6-.25-1-.4-1.3-.4-.4 0-.65.2-1.05.75-.25.3-.5.65-.65 1-.3.6-.6 1.25-.8 1.9-1.25 3.35-2.4 6.7-3.55 10.05-.15.35-.2.65-.3.95-.1.55.05.85.6 1.2zm24.353-9.8c-1.2 1.2-2.15 2.55-2.8 4.05-1.05 2.45-.8 4.85.55 7.1.95 1.65 2.55 2.55 4.45 2.55 4.15 0 6.4-3.4 6.65-7.2.15-2.75-.25-5.45-1.4-8-.2-.4-.4-.8-.55-1.2-.3-1.05.2-1.65 1.2-1.65h.2c.4.05.8.2 1.1.5.2.15.35.35.6.5.2.15.4.2.6.2.35 0 .7-.2.95-.5.2-.3.45-.6.65-.95.05-.9-.55-1.45-1.25-1.85a5.242 5.242 0 00-3.95-.6c-1.7.35-3.3 1.7-3.05 3.9.05.7.25 1.35.55 2 .8 1.6 1.35 3.25 1.55 5 .2 1.65.15 3.25-.45 4.85-.5 1.25-1.85 2.3-3.25 2.3-.95 0-1.9-.5-2.4-1.55s-.7-2.2-.45-3.35c.55-2.05 1.7-3.65 3.55-4.85.05-.3.05-.65.1-1-.8-.1-.55-.9-.95-1.3-1 .1-1.5.35-2.2 1.05zm17.035 9.3c.3 1.35 1.1 2.1 2.25 2.1.75 0 1.35-.3 2-.6.65-.4 1.25-.75 1.85-1.15 2.95-2.25 5-5.1 6.5-8.55-.25-.25-.2-.75-.8-.75-.5-.05-.5-.55-1-.65-.6.4-.8 1.05-1.1 1.65-1.25 2.45-3.2 4.55-5.4 6.15-.4.3-.75.6-1.3.7-.15-.7.15-1.25.35-1.85.85-2.1 1.8-4.2 2.85-6.25.15-.3.35-.55.45-.9.15-.55.25-1.15-.3-1.65-.35-.25-.3-.65-.35-1-.1-1.55-1.5-2.65-3-2.65-.3 0-.6.05-.95.15-3.85 1.35-7.45 8.05-8.9 11.5-.1.25-.15.5-.2.75-.2.8-.25 1.6-.1 2.4.2 1.4 1.3 2.3 2.6 2.3 1.25 0 2.35-.8 3.3-1.5.35-.3.6-.7 1.1-.8.15.2.15.4.15.6zm1.8-8.3c-.9 1.2-1.7 2.5-2.55 3.75-.65.95-1.4 1.8-2.25 2.55-.35.35-.65.7-1.2.7h-.1c-.2-.35-.15-.65-.05-1 .05-.3.15-.6.25-.85 1.35-3.05 3-5.95 5.4-8.35.7-.7.75-.7 1.75-.95-.25 1.5-.25 2.9-1.25 4.15zm22.257-.6c-.15-.3-.45-.55-.85-.75-.15-.1-.3-.1-.45-.1-.65 0-.95.7-1.3 1.25-1.4 2.1-2.75 4.2-4.15 6.25-1.15 1.75-2.85 4-5 4.45-.4-.25-.45-.5-.5-.75-.25-.8-.35-1.65-.25-2.5.15-1.25.35-2.55.55-3.8.1-.55.45-.95.85-1.35 5.15-4.45 12.5-13.05 14.3-19.9.2-.85.25-1.75-.05-2.6-.35-1-1-1.5-1.8-1.5-.3 0-.6.1-.95.2-1.25.5-3.55 3-4.4 4-3.65 4.4-7.95 11.45-9.7 17.05-.25.85-.45 1.7-1.3 2.2-.1.05-.1.15-.15.3.5.9.35 1.9.15 2.9-.05.35-.1.75-.15 1.1-.15 1.6-.2 3.2.2 4.85.4 1.65 1.6 2.6 3.1 2.6 2.45 0 5.2-2.5 6.45-4.45.95-1.35 1.9-2.7 2.8-4.05.8-1.2 3.45-3.85 2.6-5.4zm-9.4-3.45c2.1-4.2 4.5-8.2 7.5-11.85.15-.25 1.65-1.85 1.85-1.85.05 0 .15 0 .2.05-.2 3.4-6.9 11.35-9.55 14.35-.2-.4-.1-.55 0-.7zm11.817 12.35c.3 1.35 1.1 2.1 2.25 2.1.75 0 1.35-.3 2-.6.65-.4 1.25-.75 1.85-1.15 2.95-2.25 5-5.1 6.5-8.55-.25-.25-.2-.75-.8-.75-.5-.05-.5-.55-1-.65-.6.4-.8 1.05-1.1 1.65-1.25 2.45-3.2 4.55-5.4 6.15-.4.3-.75.6-1.3.7-.15-.7.15-1.25.35-1.85.85-2.1 1.8-4.2 2.85-6.25.15-.3.35-.55.45-.9.15-.55.25-1.15-.3-1.65-.35-.25-.3-.65-.35-1-.1-1.55-1.5-2.65-3-2.65-.3 0-.6.05-.95.15-3.85 1.35-7.45 8.05-8.9 11.5-.1.25-.15.5-.2.75-.2.8-.25 1.6-.1 2.4.2 1.4 1.3 2.3 2.6 2.3 1.25 0 2.35-.8 3.3-1.5.35-.3.6-.7 1.1-.8.15.2.15.4.15.6zm1.8-8.3c-.9 1.2-1.7 2.5-2.55 3.75-.65.95-1.4 1.8-2.25 2.55-.35.35-.65.7-1.2.7h-.1c-.2-.35-.15-.65-.05-1 .05-.3.15-.6.25-.85 1.35-3.05 3-5.95 5.4-8.35.7-.7.75-.7 1.75-.95-.25 1.5-.25 2.9-1.25 4.15zm5.757 8.8c.3.2.8.15 1.05.5.3-.05.55-.05.9-.1 1.6-3.45 3.3-6.8 5.2-10 .5.05.8.25 1.1.45.8.5 1.6.65 2.4.65 1.85 0 4.05-.9 5.65-1.7 1.3-.7 1.5-1.3.45-2.55-.15-.2-.3-.35-.5-.45-.05-.05-.15-.05-.25-.05-.7 0-1.75.9-2.3 1.1-.55.2-2.75.95-3.3.95-.7 0-1.25-.4-1.6-1.1-.2-.4-.45-.8-.8-1.15-.15-.15-.35-.3-.3-.4.1-.65-.5-1.1-.65-1.6-.6-.25-1-.4-1.3-.4-.4 0-.65.2-1.05.75-.25.3-.5.65-.65 1-.3.6-.6 1.25-.8 1.9-1.25 3.35-2.4 6.7-3.55 10.05-.15.35-.2.65-.3.95-.1.55.05.85.6 1.2zm25.889-.3l.05-.05c-.05-.7.25-1.3.45-1.95.75-3.15 1.55-6.35 2.4-9.5.05-.35.1-.65.1-1-.05-.5-.3-.85-.8-1.05-.3-.15-.55-.2-.8-.2-.4 0-.8.25-1.25.8-2.15 2.75-4.45 5.35-6.75 7.95-1.25 1.4-2.65 2.65-4.15 3.75-.35.2-.7.5-1.15.5h-.2c-.2-.45-.05-.85.1-1.25.95-3.25 2.4-6.25 4.3-9.05.2-.2.35-.55.6-.6.6-.15.6-.65.85-1.05.3-.55.05-.95-.2-1.4-.2-.1-.4-.25-.65-.35-.25-.1-.35-.3-.7-.3h-.1c-.55.3-1.1.8-1.5 1.4-2.45 3.4-4.3 7.1-5.4 11.15-.25.75-.3 1.5-.2 2.25.15 1.25 1.05 2.1 2.3 2.2 3.7 0 8.15-5.25 10.35-7.85.3-.35.55-.8 1-1 .2.3.1.5.05.75-.6 2.45-1.3 4.85-2.05 7.2-.25.85-.7 1.35-1.4 1.7-2.2 1.2-4.45 2.35-6.75 3.35-3.9 1.7-8.5 4.35-8.7 9.15-.05 1.75.65 3.6 2.9 4.25.6.2 1.25.3 1.9.3 6.65 0 11.45-9.15 13.4-14.65.3-.75.7-1.3 1.45-1.65.35-.2.65-.4 1-.6 2.6-1.6 1.95-.85 4.35-2.75.85-.65 1.6-1.3 2.25-2.1-.05-.15-.1-.25-.15-.35 0-.2-.05-.35-.05-.5-.65-.3-.65-.3-1.25-1.15-.4.05-.7.3-.95.55-2.15 2.05-1.4 1.3-3.9 2.85-.15.15-.35.25-.6.25H643.749zm-5.7 7.3c-1.7 3.7-5 10.05-9.8 10.05h-.45c-1.15-.1-1.6-.75-1.5-1.9.15-2.7 3.25-4.9 5.6-5.85 1.9-.9 3.75-1.75 5.65-2.65.15-.05.3-.1.65-.2-.1.3-.1.4-.15.55z" fill="#000"/><path d="M171 13c7 6.5 13 14 18.5 19M169 39c1.833-5 9.6-21.5 24-27.5M420 16.5c7-1.5 21-1.5 35.5 0M421.5 28.125c7-1.5 22-1.625 35 1.875" stroke="#231F20" stroke-width="3" stroke-linecap="round" stroke-linejoin="round"/></svg>