<svg width="47" height="47" viewBox="0 0 47 47" fill="none" xmlns="http://www.w3.org/2000/svg">
<path d="M3.00554 16.802C8.80816 2.44513 20.6668 -0.621754 30.8821 1.54203C49.2305 8.95798 48.5782 21.4665 43.1169 34.9789C37.3142 49.3357 21.7914 47.483 13.6448 44.1903C5.49815 40.8977 -3.82107 33.6924 3.00554 16.802Z" fill="#FADE2A"/>
<path d="M18.8578 28.5541C19.3564 28.1581 19.5838 27.9747 19.5398 28.0041C20.9771 26.8161 22.1064 25.8407 22.9278 25.0781C23.7638 24.3154 24.4678 23.5161 25.0398 22.6801C25.6118 21.8441 25.8978 21.0301 25.8978 20.2381C25.8978 19.6367 25.7584 19.1674 25.4798 18.8301C25.2011 18.4927 24.7831 18.3241 24.2258 18.3241C23.6684 18.3241 23.2284 18.5367 22.9058 18.9621C22.5978 19.3727 22.4438 19.9594 22.4438 20.7221H18.8138C18.8431 19.4754 19.1071 18.4341 19.6058 17.5981C20.1191 16.7621 20.7864 16.1461 21.6078 15.7501C22.4438 15.3541 23.3678 15.1561 24.3798 15.1561C26.1251 15.1561 27.4378 15.6034 28.3178 16.4981C29.2124 17.3927 29.6598 18.5587 29.6598 19.9961C29.6598 21.5654 29.1244 23.0247 28.0538 24.3741C26.9831 25.7087 25.6191 27.0141 23.9618 28.2901H29.9018V31.3481H18.8578V28.5541Z" fill="black"/>
</svg>
