<svg width="47" height="48" viewBox="0 0 47 48" fill="none" xmlns="http://www.w3.org/2000/svg">
<path d="M5.91225 37.5156C-2.98681 24.8429 0.882598 13.2213 8.25003 5.82167C24.4461 -5.55154 34.5922 1.79321 42.9678 13.7204C51.8668 26.3931 41.8764 38.4173 34.6854 43.467C27.4944 48.5167 16.3817 52.4246 5.91225 37.5156Z" fill="#FADE2A"/>
<path d="M18.122 20.0401C18.1807 18.4707 18.694 17.2607 19.662 16.4101C20.63 15.5594 21.9427 15.1341 23.6 15.1341C24.7 15.1341 25.6387 15.3247 26.416 15.7061C27.208 16.0874 27.802 16.6081 28.198 17.2681C28.6087 17.9281 28.814 18.6687 28.814 19.4901C28.814 20.4581 28.572 21.2501 28.088 21.8661C27.604 22.4674 27.0393 22.8781 26.394 23.0981V23.1861C27.23 23.4647 27.89 23.9267 28.374 24.5721C28.858 25.2174 29.1 26.0461 29.1 27.0581C29.1 27.9674 28.8873 28.7741 28.462 29.4781C28.0513 30.1674 27.4427 30.7101 26.636 31.1061C25.844 31.5021 24.898 31.7001 23.798 31.7001C22.038 31.7001 20.63 31.2674 19.574 30.4021C18.5327 29.5367 17.9827 28.2314 17.924 26.4861H21.576C21.5907 27.1314 21.774 27.6447 22.126 28.0261C22.478 28.3927 22.9913 28.5761 23.666 28.5761C24.238 28.5761 24.678 28.4147 24.986 28.0921C25.3087 27.7547 25.47 27.3147 25.47 26.7721C25.47 26.0681 25.2427 25.5621 24.788 25.2541C24.348 24.9314 23.6367 24.7701 22.654 24.7701H21.95V21.7121H22.654C23.402 21.7121 24.0033 21.5874 24.458 21.3381C24.9273 21.0741 25.162 20.6121 25.162 19.9521C25.162 19.4241 25.0153 19.0134 24.722 18.7201C24.4287 18.4267 24.0253 18.2801 23.512 18.2801C22.9547 18.2801 22.5367 18.4487 22.258 18.7861C21.994 19.1234 21.84 19.5414 21.796 20.0401H18.122Z" fill="black"/>
</svg>
